<svg id="visual" viewBox="0 0 960 540" width="960" height="540" xmlns="http://www.w3.org/2000/svg" xmlns:xlink="http://www.w3.org/1999/xlink" version="1.1"><rect x="0" y="0" width="960" height="540" fill="#233142"></rect><defs><linearGradient id="grad1_0" x1="43.8%" y1="0%" x2="100%" y2="100%"><stop offset="14.444444444444446%" stop-color="#f95959" stop-opacity="1"></stop><stop offset="85.55555555555554%" stop-color="#f95959" stop-opacity="1"></stop></linearGradient></defs><defs><linearGradient id="grad1_1" x1="43.8%" y1="0%" x2="100%" y2="100%"><stop offset="14.444444444444446%" stop-color="#f95959" stop-opacity="1"></stop><stop offset="85.55555555555554%" stop-color="#c8487b" stop-opacity="1"></stop></linearGradient></defs><defs><linearGradient id="grad1_2" x1="43.8%" y1="0%" x2="100%" y2="100%"><stop offset="14.444444444444446%" stop-color="#854882" stop-opacity="1"></stop><stop offset="85.55555555555554%" stop-color="#c8487b" stop-opacity="1"></stop></linearGradient></defs><defs><linearGradient id="grad1_3" x1="43.8%" y1="0%" x2="100%" y2="100%"><stop offset="14.444444444444446%" stop-color="#854882" stop-opacity="1"></stop><stop offset="85.55555555555554%" stop-color="#46416b" stop-opacity="1"></stop></linearGradient></defs><defs><linearGradient id="grad1_4" x1="43.8%" y1="0%" x2="100%" y2="100%"><stop offset="14.444444444444446%" stop-color="#233142" stop-opacity="1"></stop><stop offset="85.55555555555554%" stop-color="#46416b" stop-opacity="1"></stop></linearGradient></defs><defs><linearGradient id="grad2_0" x1="0%" y1="0%" x2="56.3%" y2="100%"><stop offset="14.444444444444446%" stop-color="#f95959" stop-opacity="1"></stop><stop offset="85.55555555555554%" stop-color="#f95959" stop-opacity="1"></stop></linearGradient></defs><defs><linearGradient id="grad2_1" x1="0%" y1="0%" x2="56.3%" y2="100%"><stop offset="14.444444444444446%" stop-color="#c8487b" stop-opacity="1"></stop><stop offset="85.55555555555554%" stop-color="#f95959" stop-opacity="1"></stop></linearGradient></defs><defs><linearGradient id="grad2_2" x1="0%" y1="0%" x2="56.3%" y2="100%"><stop offset="14.444444444444446%" stop-color="#c8487b" stop-opacity="1"></stop><stop offset="85.55555555555554%" stop-color="#854882" stop-opacity="1"></stop></linearGradient></defs><defs><linearGradient id="grad2_3" x1="0%" y1="0%" x2="56.3%" y2="100%"><stop offset="14.444444444444446%" stop-color="#46416b" stop-opacity="1"></stop><stop offset="85.55555555555554%" stop-color="#854882" stop-opacity="1"></stop></linearGradient></defs><defs><linearGradient id="grad2_4" x1="0%" y1="0%" x2="56.3%" y2="100%"><stop offset="14.444444444444446%" stop-color="#46416b" stop-opacity="1"></stop><stop offset="85.55555555555554%" stop-color="#233142" stop-opacity="1"></stop></linearGradient></defs><g transform="translate(960, 0)"><path d="M0 459C-61.4 449.5 -122.8 440.1 -170.3 411.1C-217.8 382.2 -251.4 333.8 -292 292C-332.7 250.3 -380.3 215.2 -404.7 167.6C-429 120.1 -430 60 -431 0L0 0Z" fill="#2f3a58"></path><path d="M0 367.2C-49.1 359.6 -98.2 352 -136.2 328.9C-174.2 305.8 -201.1 267 -233.6 233.6C-266.1 200.2 -304.3 172.1 -323.7 134.1C-343.2 96 -344 48 -344.8 0L0 0Z" fill="#63467a"></path><path d="M0 275.4C-36.8 269.7 -73.7 264 -102.2 246.7C-130.7 229.3 -150.8 200.3 -175.2 175.2C-199.6 150.2 -228.2 129.1 -242.8 100.6C-257.4 72 -258 36 -258.6 0L0 0Z" fill="#a74882"></path><path d="M0 183.6C-24.6 179.8 -49.1 176 -68.1 164.5C-87.1 152.9 -100.6 133.5 -116.8 116.8C-133.1 100.1 -152.1 86.1 -161.9 67C-171.6 48 -172 24 -172.4 0L0 0Z" fill="#e44c6d"></path><path d="M0 91.8C-12.3 89.9 -24.6 88 -34.1 82.2C-43.6 76.4 -50.3 66.8 -58.4 58.4C-66.5 50.1 -76.1 43 -80.9 33.5C-85.8 24 -86 12 -86.2 0L0 0Z" fill="#f95959"></path></g><g transform="translate(0, 540)"><path d="M0 -459C53.3 -432.7 106.6 -406.4 158.8 -383.4C211 -360.4 262 -340.6 306.2 -306.2C350.4 -271.7 387.7 -222.6 408.4 -169.1C429 -115.7 433 -57.8 437 0L0 0Z" fill="#2f3a58"></path><path d="M0 -367.2C42.7 -346.2 85.3 -325.1 127.1 -306.7C168.8 -288.3 209.6 -272.5 244.9 -244.9C280.3 -217.4 310.2 -178.1 326.7 -135.3C343.2 -92.5 346.4 -46.3 349.6 0L0 0Z" fill="#63467a"></path><path d="M0 -275.4C32 -259.6 64 -243.9 95.3 -230C126.6 -216.2 157.2 -204.4 183.7 -183.7C210.2 -163 232.6 -133.6 245 -101.5C257.4 -69.4 259.8 -34.7 262.2 0L0 0Z" fill="#a74882"></path><path d="M0 -183.6C21.3 -173.1 42.7 -162.6 63.5 -153.4C84.4 -144.2 104.8 -136.2 122.5 -122.5C140.1 -108.7 155.1 -89 163.3 -67.7C171.6 -46.3 173.2 -23.1 174.8 0L0 0Z" fill="#e44c6d"></path><path d="M0 -91.8C10.7 -86.5 21.3 -81.3 31.8 -76.7C42.2 -72.1 52.4 -68.1 61.2 -61.2C70.1 -54.3 77.5 -44.5 81.7 -33.8C85.8 -23.1 86.6 -11.6 87.4 0L0 0Z" fill="#f95959"></path></g></svg>